<svg width="100" height="119" viewBox="0 0 100 119" fill="none" xmlns="http://www.w3.org/2000/svg">
<path fill-rule="evenodd" clip-rule="evenodd" d="M25.5724 0.934502C24.5168 1.79645 24.2025 3.04923 23.0264 11.0946L21.6842 20.2718L18.8029 20.6552C12.3939 21.5076 10.5656 22.1362 8.08346 24.3391C3.68136 28.2453 3.3508 29.6476 0.704198 55.6712C-0.896755 71.4091 -2.01156 69.492 23.94 95.6255C35.3772 107.143 45.5272 116.967 46.4964 117.456C47.465 117.946 49.4783 118.473 50.9697 118.628C56.3022 119.183 56.8245 118.769 78.9026 96.4494C100.269 74.8501 99.9932 75.1976 100 69.9029C100.006 65.4246 98.5965 63.7213 76.5771 41.6018C62.43 27.3908 54.9789 20.2802 53.3785 19.4637C50.2546 17.8703 45.018 17.6057 36.6146 18.6165C33.013 19.0502 30.0164 19.3544 29.9551 19.2926C29.8938 19.2313 30.3066 15.8712 30.8719 11.8255C32.157 2.63146 32.1611 2.80733 30.6136 1.2477C29.0808 -0.298208 27.2237 -0.413345 25.5724 0.934502ZM36.9693 22.5956C29.4491 23.5521 28.7806 23.8479 28.7644 26.2267C28.7549 27.6564 28.7225 27.6548 36.8964 26.627C44.9389 25.6156 47.7945 25.6283 49.8686 26.6841C52.1092 27.8254 90.8757 66.7963 91.6536 68.6897C91.9889 69.5067 92.1283 70.7141 91.9632 71.3738C91.7977 72.0329 83.0936 81.1879 72.6208 91.7177C56.3101 108.118 53.3607 110.863 52.0536 110.863C50.7434 110.863 47.586 107.901 29.7356 89.9257C11.607 71.67 8.86298 68.6976 8.31501 66.7239C7.78171 64.8041 7.93887 62.1459 9.34756 49.2383C10.2612 40.8666 11.1324 33.5046 11.2833 32.8788C11.7783 30.8227 13.8853 29.3787 17.0134 28.9504C18.6274 28.7296 20.0539 28.4423 20.1839 28.3118C20.3133 28.1809 20.5579 27.2128 20.7276 26.1596C21.0283 24.291 20.999 24.2509 19.5264 24.4891C18.6961 24.6232 16.917 24.873 15.5722 25.0436C12.5966 25.4213 9.34966 27.6585 8.19452 30.1266C7.24265 32.1594 4.13451 57.9888 4.13451 63.865C4.13451 66.6003 4.42841 68.1906 5.23622 69.8205C6.36778 72.1052 43.2851 110.029 47.3016 113.032C49.7942 114.897 53.268 115.107 55.803 113.549C56.7046 112.995 65.9399 103.996 76.3257 93.5525C96.7939 72.9704 96.8473 72.9012 95.8258 68.3834C95.4182 66.5834 92.5825 63.5096 74.4984 45.2656C60.7855 31.4316 52.8981 23.8595 51.4742 23.1608C48.4195 21.6624 45.2711 21.5393 36.9693 22.5956ZM17.388 34.9412C15.6738 36.8389 15.1358 38.2665 15.1358 40.9178C15.1358 45.8212 18.6264 48.8956 23.6414 48.4097C29.5114 47.8414 32.389 41.2416 29.0247 36.0646C28.5758 35.3743 28.0058 34.8092 27.7575 34.8092C27.5097 34.8092 27.1372 36.4132 26.9303 38.3742C26.4693 42.7336 26.0806 43.52 24.0333 44.2399C22.0777 44.927 20.1587 44.299 19.3064 42.6929C18.7406 41.6276 18.9344 37.1811 19.6553 34.6772C20.0361 33.3531 18.6803 33.511 17.388 34.9412ZM45.0206 48.2523L43.2657 50.0776L45.1584 59.2125C48.8889 77.2172 51.3784 88.947 51.4947 89.0674C51.5596 89.1345 52.4701 88.3026 53.5173 87.2189L55.4216 85.2478L53.597 76.5333C52.5937 71.7403 50.8189 63.1842 49.6527 57.5198C48.4871 51.8553 47.3624 47.0423 47.1544 46.8236C46.9459 46.605 45.9861 47.2483 45.0206 48.2523ZM58.009 58.8206C56.1524 60.0929 53.9024 63.8212 53.9024 65.6259C53.9024 68.3062 56.9036 72.6941 59.7697 74.2036C65.7461 77.3514 73.0436 70.4099 70.419 64.0752C68.0097 58.2608 62.3341 55.8577 58.009 58.8206ZM31.8589 61.3616C28.8471 63.4076 27.5809 65.8002 27.8329 68.9691C28.2185 73.8138 32.1093 77.5838 36.7272 77.5875C38.7525 77.5891 39.5362 77.2901 41.0759 75.927C43.4469 73.8281 44.4727 71.8401 44.4727 69.3441C44.4727 65.0449 39.6829 60.1605 35.4673 60.1605C34.4201 60.1605 32.8642 60.6781 31.8589 61.3616ZM59.4402 63.1029C58.1683 64.3858 58.459 66.2802 60.2433 68.3284C63.0141 71.51 66.4753 70.6903 66.4753 66.8517C66.4753 65.2266 63.2776 62.2732 61.5179 62.2732C60.828 62.2732 59.8934 62.6466 59.4402 63.1029ZM32.6159 66.267C31.7981 67.5256 31.7965 67.7475 32.597 69.4397C33.3383 71.0067 36.1195 73.3564 37.2401 73.3623C37.4402 73.3633 38.2423 72.8109 39.0223 72.1343C40.7762 70.6137 40.5117 68.9237 38.1459 66.539C36.0808 64.4571 33.8632 64.3477 32.6159 66.267Z" fill="white"/>
</svg>
