<svg width="24" height="24" viewBox="0 0 24 24" fill="none" xmlns="http://www.w3.org/2000/svg">
<g clip-path="url(#clip0_106_44)">
<path d="M12 24C18.6274 24 24 18.6274 24 12C24 5.37258 18.6274 0 12 0C5.37258 0 0 5.37258 0 12C0 18.6274 5.37258 24 12 24Z" fill="#6DA544"/>
<path d="M11.9999 4.69568L21.913 12L11.9999 19.3044L2.08691 12L11.9999 4.69568Z" fill="#FFDA44"/>
<path d="M11.9999 16.1738C14.3051 16.1738 16.1738 14.3051 16.1738 11.9999C16.1738 9.69476 14.3051 7.82605 11.9999 7.82605C9.69476 7.82605 7.82605 9.69476 7.82605 11.9999C7.82605 14.3051 9.69476 16.1738 11.9999 16.1738Z" fill="#F0F0F0"/>
<path d="M9.913 11.7391C9.18719 11.7391 8.48674 11.8495 7.82739 12.0544C7.8566 14.3344 9.71303 16.1739 12 16.1739C13.4141 16.1739 14.663 15.47 15.418 14.3942C14.1263 12.7771 12.1388 11.7391 9.913 11.7391Z" fill="#0052B4"/>
<path d="M16.0965 12.7996C16.1468 12.5407 16.1739 12.2735 16.1739 11.9999C16.1739 9.69472 14.3052 7.82605 12 7.82605C10.28 7.82605 8.80343 8.86672 8.16443 10.3526C8.72927 10.2355 9.31408 10.1739 9.9131 10.1739C12.3373 10.1738 14.5304 11.1815 16.0965 12.7996Z" fill="#0052B4"/>
</g>
<defs>
<clipPath id="clip0_106_44">
<rect width="24" height="24" fill="white"/>
</clipPath>
</defs>
</svg>
