<svg width="24" height="18" viewBox="0 0 24 18" fill="none" xmlns="http://www.w3.org/2000/svg">
<mask id="mask0_134_1041" style="mask-type:luminance" maskUnits="userSpaceOnUse" x="0" y="0" width="24" height="18">
<path d="M22.2857 0H1.71429C0.767512 0 0 0.767512 0 1.71429V15.4286C0 16.3753 0.767512 17.1429 1.71429 17.1429H22.2857C23.2325 17.1429 24 16.3753 24 15.4286V1.71429C24 0.767512 23.2325 0 22.2857 0Z" fill="white"/>
</mask>
<g mask="url(#mask0_134_1041)">
<path d="M22.2857 0H1.71429C0.767512 0 0 0.767512 0 1.71429V15.4286C0 16.3753 0.767512 17.1429 1.71429 17.1429H22.2857C23.2325 17.1429 24 16.3753 24 15.4286V1.71429C24 0.767512 23.2325 0 22.2857 0Z" fill="white"/>
<mask id="mask1_134_1041" style="mask-type:alpha" maskUnits="userSpaceOnUse" x="0" y="0" width="24" height="18">
<path d="M22.2857 0H1.71429C0.767512 0 0 0.767512 0 1.71429V15.4286C0 16.3753 0.767512 17.1429 1.71429 17.1429H22.2857C23.2325 17.1429 24 16.3753 24 15.4286V1.71429C24 0.767512 23.2325 0 22.2857 0Z" fill="white"/>
</mask>
<g mask="url(#mask1_134_1041)">
<path fill-rule="evenodd" clip-rule="evenodd" d="M24 0H0V1.14285H24V0ZM24 2.28572H0V3.42857H24V2.28572ZM0 4.57143H24V5.71429H0V4.57143ZM24 6.85714H0V8H24V6.85714ZM0 9.14289H24V10.2857H0V9.14289ZM24 11.4285H0V12.5715H24V11.4285ZM0 13.7143H24V14.8571H0V13.7143ZM24 16H0V17.1429H24V16Z" fill="#D02F44"/>
<path d="M10.2857 0H0V8H10.2857V0Z" fill="#46467F"/>
<g filter="url(#filter0_d_134_1041)">
<path fill-rule="evenodd" clip-rule="evenodd" d="M2.28569 1.71428C2.28569 2.02987 2.02985 2.28571 1.71425 2.28571C1.39866 2.28571 1.14282 2.02987 1.14282 1.71428C1.14282 1.39869 1.39866 1.14285 1.71425 1.14285C2.02985 1.14285 2.28569 1.39869 2.28569 1.71428ZM4.57139 1.71428C4.57139 2.02987 4.31556 2.28571 3.99997 2.28571C3.68438 2.28571 3.42854 2.02987 3.42854 1.71428C3.42854 1.39869 3.68438 1.14285 3.99997 1.14285C4.31556 1.14285 4.57139 1.39869 4.57139 1.71428ZM6.28568 2.28571C6.60127 2.28571 6.85711 2.02987 6.85711 1.71428C6.85711 1.39869 6.60127 1.14285 6.28568 1.14285C5.97009 1.14285 5.71426 1.39869 5.71426 1.71428C5.71426 2.02987 5.97009 2.28571 6.28568 2.28571ZM9.14279 1.71428C9.14279 2.02987 8.88701 2.28571 8.5714 2.28571C8.25581 2.28571 7.99997 2.02987 7.99997 1.71428C7.99997 1.39869 8.25581 1.14285 8.5714 1.14285C8.88701 1.14285 9.14279 1.39869 9.14279 1.71428ZM2.85711 3.42856C3.1727 3.42856 3.42854 3.17273 3.42854 2.85714C3.42854 2.54155 3.1727 2.28571 2.85711 2.28571C2.54152 2.28571 2.28569 2.54155 2.28569 2.85714C2.28569 3.17273 2.54152 3.42856 2.85711 3.42856ZM5.71426 2.85714C5.71426 3.17273 5.45842 3.42856 5.14283 3.42856C4.82723 3.42856 4.57139 3.17273 4.57139 2.85714C4.57139 2.54155 4.82723 2.28571 5.14283 2.28571C5.45842 2.28571 5.71426 2.54155 5.71426 2.85714ZM7.42854 3.42856C7.74413 3.42856 7.99997 3.17273 7.99997 2.85714C7.99997 2.54155 7.74413 2.28571 7.42854 2.28571C7.11295 2.28571 6.85711 2.54155 6.85711 2.85714C6.85711 3.17273 7.11295 3.42856 7.42854 3.42856ZM9.14279 3.99999C9.14279 4.31558 8.88701 4.57142 8.5714 4.57142C8.25581 4.57142 7.99997 4.31558 7.99997 3.99999C7.99997 3.6844 8.25581 3.42856 8.5714 3.42856C8.88701 3.42856 9.14279 3.6844 9.14279 3.99999ZM6.28568 4.57142C6.60127 4.57142 6.85711 4.31558 6.85711 3.99999C6.85711 3.6844 6.60127 3.42856 6.28568 3.42856C5.97009 3.42856 5.71426 3.6844 5.71426 3.99999C5.71426 4.31558 5.97009 4.57142 6.28568 4.57142ZM4.57139 3.99999C4.57139 4.31558 4.31556 4.57142 3.99997 4.57142C3.68438 4.57142 3.42854 4.31558 3.42854 3.99999C3.42854 3.6844 3.68438 3.42856 3.99997 3.42856C4.31556 3.42856 4.57139 3.6844 4.57139 3.99999ZM1.71425 4.57142C2.02985 4.57142 2.28569 4.31558 2.28569 3.99999C2.28569 3.6844 2.02985 3.42856 1.71425 3.42856C1.39866 3.42856 1.14282 3.6844 1.14282 3.99999C1.14282 4.31558 1.39866 4.57142 1.71425 4.57142ZM3.42854 5.14285C3.42854 5.45845 3.1727 5.71428 2.85711 5.71428C2.54152 5.71428 2.28569 5.45845 2.28569 5.14285C2.28569 4.82726 2.54152 4.57142 2.85711 4.57142C3.1727 4.57142 3.42854 4.82726 3.42854 5.14285ZM5.14283 5.71428C5.45842 5.71428 5.71426 5.45845 5.71426 5.14285C5.71426 4.82726 5.45842 4.57142 5.14283 4.57142C4.82723 4.57142 4.57139 4.82726 4.57139 5.14285C4.57139 5.45845 4.82723 5.71428 5.14283 5.71428ZM7.99997 5.14285C7.99997 5.45845 7.74413 5.71428 7.42854 5.71428C7.11295 5.71428 6.85711 5.45845 6.85711 5.14285C6.85711 4.82726 7.11295 4.57142 7.42854 4.57142C7.74413 4.57142 7.99997 4.82726 7.99997 5.14285ZM8.5714 6.85714C8.88701 6.85714 9.14279 6.6013 9.14279 6.28571C9.14279 5.97012 8.88701 5.71428 8.5714 5.71428C8.25581 5.71428 7.99997 5.97012 7.99997 6.28571C7.99997 6.6013 8.25581 6.85714 8.5714 6.85714ZM6.85711 6.28571C6.85711 6.6013 6.60127 6.85714 6.28568 6.85714C5.97009 6.85714 5.71426 6.6013 5.71426 6.28571C5.71426 5.97012 5.97009 5.71428 6.28568 5.71428C6.60127 5.71428 6.85711 5.97012 6.85711 6.28571ZM3.99997 6.85714C4.31556 6.85714 4.57139 6.6013 4.57139 6.28571C4.57139 5.97012 4.31556 5.71428 3.99997 5.71428C3.68438 5.71428 3.42854 5.97012 3.42854 6.28571C3.42854 6.6013 3.68438 6.85714 3.99997 6.85714ZM2.28569 6.28571C2.28569 6.6013 2.02985 6.85714 1.71425 6.85714C1.39866 6.85714 1.14282 6.6013 1.14282 6.28571C1.14282 5.97012 1.39866 5.71428 1.71425 5.71428C2.02985 5.71428 2.28569 5.97012 2.28569 6.28571Z" fill="url(#paint0_linear_134_1041)"/>
</g>
</g>
</g>
<defs>
<filter id="filter0_d_134_1041" x="1.14282" y="1.14285" width="8" height="34.2857" filterUnits="userSpaceOnUse" color-interpolation-filters="sRGB">
<feFlood flood-opacity="0" result="BackgroundImageFix"/>
<feColorMatrix in="SourceAlpha" type="matrix" values="0 0 0 0 0 0 0 0 0 0 0 0 0 0 0 0 0 0 127 0" result="hardAlpha"/>
<feOffset dy="28.5714"/>
<feColorMatrix type="matrix" values="0 0 0 0 0 0 0 0 0 0 0 0 0 0 0 0 0 0 0.06 0"/>
<feBlend mode="normal" in2="BackgroundImageFix" result="effect1_dropShadow_134_1041"/>
<feBlend mode="normal" in="SourceGraphic" in2="effect1_dropShadow_134_1041" result="shape"/>
</filter>
<linearGradient id="paint0_linear_134_1041" x1="1.14282" y1="1.14285" x2="1.14282" y2="6.85713" gradientUnits="userSpaceOnUse">
<stop stop-color="white"/>
<stop offset="1" stop-color="#F0F0F0"/>
</linearGradient>
</defs>
</svg>
